<svg width="22" height="20" viewBox="0 0 22 20" fill="none" xmlns="http://www.w3.org/2000/svg">
<path d="M10.5245 0.463526C10.6741 0.00287056 11.3259 0.00287008 11.4755 0.463525L13.5819 6.9463C13.6488 7.15232 13.8408 7.2918 14.0574 7.2918H20.8738C21.3582 7.2918 21.5596 7.9116 21.1677 8.1963L15.6531 12.2029C15.4779 12.3302 15.4046 12.5559 15.4715 12.7619L17.5779 19.2447C17.7276 19.7053 17.2003 20.0884 16.8085 19.8037L11.2939 15.7971C11.1186 15.6698 10.8814 15.6698 10.7061 15.7971L5.19153 19.8037C4.79967 20.0884 4.27243 19.7053 4.42211 19.2447L6.52849 12.7619C6.59543 12.5559 6.5221 12.3302 6.34685 12.2029L0.832272 8.1963C0.440415 7.9116 0.641802 7.2918 1.12616 7.2918H7.94256C8.15917 7.2918 8.35115 7.15232 8.41809 6.9463L10.5245 0.463526Z" fill="#FFC700"/>
</svg>
