<svg width="30" height="30" viewBox="0 0 30 30" fill="none" xmlns="http://www.w3.org/2000/svg">
    <path fill-rule="evenodd" clip-rule="evenodd" d="M12.3465 2.49986C8.6596 2.49986 5.69901 5.46 5.69901 9.14736C5.69901 12.8339 8.66 15.7949 12.3465 15.7949C16.0339 15.7949 18.994 12.8343 18.994 9.14736C18.994 5.4596 16.0343 2.49986 12.3465 2.49986ZM12.3465 4.37486C14.9987 4.37486 17.119 6.49513 17.119 9.14736C17.119 11.7988 14.9983 13.9199 12.3465 13.9199C9.69553 13.9199 7.57401 11.7983 7.57401 9.14736C7.57401 6.49559 9.69507 4.37486 12.3465 4.37486ZM12.3466 18.0702C6.0591 18.0702 2.50037 19.2633 2.50037 22.644C2.50037 26.0284 6.0749 27.244 12.3466 27.244L13.151 27.2371C18.9354 27.136 22.1929 25.9031 22.1929 22.6702C22.1929 19.3594 18.7721 18.1241 12.7518 18.072L12.3466 18.0702ZM12.3466 19.9452C17.5984 19.9452 20.3179 20.87 20.3179 22.6702C20.3179 24.4593 17.6051 25.369 12.3466 25.369C7.09478 25.369 4.37537 24.4442 4.37537 22.644C4.37537 20.9026 6.94207 19.995 11.9257 19.9472L12.3466 19.9452ZM24.0048 9.89886C24.4795 9.89886 24.8717 10.2516 24.9338 10.7091L24.9423 10.8364V12.405H26.5625C27.0803 12.405 27.5 12.8247 27.5 13.3425C27.5 13.8171 27.1473 14.2093 26.6897 14.2714L26.5625 14.28H24.9423V15.8489C24.9423 16.3666 24.5226 16.7864 24.0048 16.7864C23.5302 16.7864 23.138 16.4337 23.0759 15.9761L23.0673 15.8489V14.28H21.45C20.9322 14.28 20.5125 13.8602 20.5125 13.3425C20.5125 12.8679 20.8652 12.4756 21.3228 12.4135L21.45 12.405H23.0673V10.8364C23.0673 10.3186 23.4871 9.89886 24.0048 9.89886Z" fill="#333333"/>
</svg>