<svg width="38" height="38" viewBox="0 0 38 38" fill="none" xmlns="http://www.w3.org/2000/svg">
<g clip-path="url(#clip0_25_40)">
<path d="M17.8832 7.87476C12.6139 8.40035 8.41134 12.6029 7.88574 17.8722H12.2981V20.1062H7.88574C8.41134 25.3755 12.6139 29.5781 17.8832 30.1037V25.6913H20.1172V30.1037C25.3865 29.5781 29.5891 25.3755 30.1147 20.1062H25.7023V17.8722H30.1147C29.5891 12.6029 25.3865 8.40035 20.1172 7.87476V12.2871H17.8832V7.87476ZM20.1172 14.5212V18.3915L22.9708 20.2939L21.7316 22.1527L17.8831 19.587V14.5212H20.1172Z" fill="white"/>
<path d="M34.2167 7.62818L37.3139 7.8171L37.4499 5.58717L30.5974 5.16925L30.1721 11.4621L32.4011 11.6127L32.5671 9.15656C34.6346 12.0017 35.7548 15.422 35.7548 18.9894C35.7548 28.2282 28.2384 35.7446 18.9995 35.7446C9.76069 35.7446 2.24429 28.2282 2.24429 18.9894C2.24429 9.75051 9.76069 2.23411 18.9995 2.23411V0C8.50472 0 0.0102539 8.49305 0.0102539 18.9893C0.0102539 35.7541 20.4292 44.4147 32.4269 32.4166C36.0135 28.83 37.9888 24.0614 37.9888 18.9893C37.9887 14.8551 36.6619 10.8951 34.2167 7.62818Z" fill="white"/>
</g>
<defs>
<clipPath id="clip0_25_40">
<rect width="38" height="38" fill="white"/>
</clipPath>
</defs>
</svg>
