<svg width="33" height="33" viewBox="0 0 33 33" fill="none" xmlns="http://www.w3.org/2000/svg">
<g clip-path="url(#clip0_25_35)">
<path d="M18.2069 27.5164V25.2478H0V27.5256C0 29.5884 1.66689 31.2931 3.72995 31.2931H20.0419C19.8855 31.1508 19.7346 31.0261 19.5921 30.8833C18.7011 29.9896 18.2027 28.7783 18.2069 27.5164Z" fill="white"/>
<path d="M12.8908 13.7634L15.5328 15.5773L18.1851 13.7634C18.9105 13.2687 19.4867 12.1521 19.4867 11.2742V7.52594L15.5395 5.57373L11.5923 7.52094V11.2742C11.5923 12.1518 12.1651 13.2687 12.8908 13.7634ZM13.4856 10.2207C13.6809 10.0274 13.9962 10.0288 14.1896 10.2244L14.983 11.0256L16.8927 9.11615C17.0872 8.92168 17.4025 8.92168 17.597 9.11643C17.7915 9.3109 17.7912 9.62622 17.5967 9.82069L15.3333 12.0852C15.24 12.1788 15.1136 12.2321 14.9814 12.2327H14.9802C14.8474 12.2318 14.7205 12.1782 14.6277 12.0832L13.482 10.9258C13.2886 10.73 13.2903 10.4147 13.4856 10.2207Z" fill="white"/>
<path d="M30.3611 1.70679H30.3453C28.8826 1.70679 27.666 2.92889 27.666 4.39242V8.96109H33.0001V4.38353C33.0067 2.91723 31.8274 1.72096 30.3611 1.70679Z" fill="white"/>
<path d="M7.64322 1.70679C6.25998 1.70679 5.13427 2.81749 5.13427 4.1799L4.9873 24.252H18.7047C18.9839 24.2632 19.2042 24.4935 19.2026 24.7732V27.5164C19.1976 29.5903 20.8694 31.278 22.9431 31.293H22.9556C25.0217 31.278 26.6844 29.5911 26.6702 27.525V4.39326C26.6702 3.34673 27.1411 2.41799 27.8487 1.70679L7.64322 1.70679ZM10.5969 7.21031C10.5906 7.02306 10.6931 6.84887 10.86 6.7633L15.3184 4.57217C15.4554 4.50439 15.616 4.50439 15.7529 4.57217L20.2194 6.76941C20.3863 6.85498 20.4888 7.02889 20.4827 7.21642V11.2742C20.4827 12.4818 19.7457 13.9057 18.7475 14.586L15.8227 16.5916C15.7407 16.648 15.6435 16.6782 15.544 16.6782C15.4448 16.6782 15.3481 16.6482 15.2667 16.5916L12.3333 14.586C11.3357 13.9054 10.5969 12.4816 10.5969 11.2742V7.21031ZM22.6163 21.9762H8.96117C8.68614 21.9762 8.46333 21.7534 8.46333 21.4783C8.46333 21.2033 8.68614 20.9805 8.96117 20.9805H22.6163C22.8914 20.9805 23.1142 21.2033 23.1142 21.4783C23.1142 21.7534 22.8914 21.9762 22.6163 21.9762ZM22.6163 19.3447H8.96117C8.68614 19.3447 8.46333 19.1219 8.46333 18.8469C8.46333 18.5718 8.68614 18.349 8.96117 18.349H22.6163C22.8914 18.349 23.1142 18.5718 23.1142 18.8469C23.1142 19.1219 22.8914 19.3447 22.6163 19.3447Z" fill="white"/>
</g>
<defs>
<clipPath id="clip0_25_35">
<rect width="33" height="33" fill="white"/>
</clipPath>
</defs>
</svg>
