<svg width="31" height="31" viewBox="0 0 31 31" fill="none" xmlns="http://www.w3.org/2000/svg">
<path d="M0 1.87695H3.63281V10.959H0V1.87695Z" fill="white"/>
<path d="M27.3672 20.041H31V29.123H27.3672V20.041Z" fill="white"/>
<path d="M13.6836 10.959H17.3164V20.041H13.6836V10.959Z" fill="white"/>
<path d="M2.72461 18.2246H11.8672V12.7754H2.72461C1.2222 12.7754 0 13.9976 0 15.5C0 17.0024 1.2222 18.2246 2.72461 18.2246Z" fill="white"/>
<path d="M28.2754 12.7754H19.1328V18.2246H28.2754C29.7778 18.2246 31 17.0024 31 15.5C31 13.9976 29.7778 12.7754 28.2754 12.7754Z" fill="white"/>
<path d="M28.2754 3.69336H5.44922V9.14258H28.2754C29.7778 9.14258 31 7.92038 31 6.41797C31 4.91556 29.7778 3.69336 28.2754 3.69336Z" fill="white"/>
<path d="M2.72461 27.3066H25.5508V21.8574H2.72461C1.2222 21.8574 0 23.0796 0 24.582C0 26.0844 1.2222 27.3066 2.72461 27.3066Z" fill="white"/>
</svg>
