<svg width="12" height="13" viewBox="0 0 12 13" fill="none" xmlns="http://www.w3.org/2000/svg">
<path d="M11.995 12.3687V12.3681H11.998V7.83192C11.998 5.61277 11.5346 3.90332 9.01804 3.90332C7.80824 3.90332 6.99638 4.58772 6.66493 5.23656H6.62994V4.1105H4.24384V12.3681H6.72842V8.27926C6.72842 7.20267 6.92639 6.16164 8.21967 6.16164C9.49396 6.16164 9.51296 7.39026 9.51296 8.34832V12.3687H11.995Z" fill="white"/>
<path d="M0.198608 4.11133H2.68619V12.3687H0.198608V4.11133Z" fill="white"/>
<path d="M1.44077 0C0.645395 0 0 0.665422 0 1.48547C0 2.30552 0.645395 2.98486 1.44077 2.98486C2.23614 2.98486 2.88153 2.30552 2.88153 1.48547C2.88103 0.665422 2.23564 0 1.44077 0V0Z" fill="white"/>
</svg>
