<svg width="26" height="25" viewBox="0 0 26 25" fill="none" xmlns="http://www.w3.org/2000/svg">
<path fill-rule="evenodd" clip-rule="evenodd" d="M1.59729 0.138735L1.47048 0.125472C1.009 0.108602 0.594585 0.434951 0.513643 0.902618L0.500381 1.02943C0.483511 1.4909 0.80986 1.90532 1.27753 1.98627L3.16378 2.3125L4.30694 15.9322L4.3306 16.1369C4.5606 17.6899 5.89641 18.8575 7.48741 18.8575H21.1274L21.3328 18.851C22.8282 18.7555 24.0682 17.6246 24.2864 16.1223L25.4727 7.92427L25.4932 7.73596C25.6024 6.23712 24.415 4.93625 22.8862 4.93625H5.26503L4.97162 1.43409L4.94951 1.29552C4.86396 0.935116 4.57098 0.653411 4.19729 0.588735L1.59729 0.138735ZM7.34231 16.9746C6.72322 16.9068 6.22811 16.4097 6.17523 15.7758L5.42235 6.81125H22.886L22.9962 6.81935C23.3909 6.87803 23.676 7.24712 23.6169 7.65581L22.4306 15.8532L22.4009 15.9998C22.2504 16.573 21.7311 16.9825 21.1272 16.9825H7.48723L7.34231 16.9746ZM5.38533 22.7316C5.38533 21.6865 6.23242 20.8379 7.27783 20.8379C8.3231 20.8379 9.17158 21.6864 9.17158 22.7316C9.17158 23.777 8.32296 24.6241 7.27783 24.6241C6.23256 24.6241 5.38533 23.7769 5.38533 22.7316ZM19.4497 22.7316C19.4497 21.6864 20.2982 20.8379 21.3435 20.8379C22.3887 20.8379 23.2372 21.6864 23.2372 22.7316C23.2372 23.777 22.3886 24.6241 21.3435 24.6241C20.2983 24.6241 19.4497 23.777 19.4497 22.7316ZM20.0604 10.4937C20.0604 9.97598 19.6406 9.55625 19.1229 9.55625H15.6566L15.5294 9.5648C15.0718 9.62688 14.7191 10.0191 14.7191 10.4937C14.7191 11.0115 15.1389 11.4312 15.6566 11.4312H19.1229L19.2501 11.4227C19.7077 11.3606 20.0604 10.9684 20.0604 10.4937Z" fill="#333333"/>
</svg>
