<svg width="28" height="33" viewBox="0 0 28 33" fill="none" xmlns="http://www.w3.org/2000/svg">
<path d="M22.2239 22.1889C21.0137 23.851 19.0533 24.9336 16.8447 24.9336H13.7455C12.675 24.9336 11.7633 24.2539 11.4181 23.3026C10.9919 23.1755 10.574 23.0105 10.1663 22.8078C9.30271 22.3788 8.51859 21.7975 7.82834 21.0774C3.351 22.061 0 26.0505 0 30.8234V31.4472C0 32.3048 0.695235 33 1.55281 33H25.6449C26.5025 33 27.1977 32.3048 27.1977 31.4472V30.8234C27.1977 27.1363 25.1978 23.9166 22.2239 22.1889Z" fill="white"/>
<path d="M6.17829 15.4349C6.84567 15.4349 7.42656 15.065 7.72751 14.5192C7.73542 14.5408 7.74347 14.5622 7.75158 14.5837C7.75397 14.5902 7.75636 14.5966 7.75876 14.6031C8.46476 16.4614 9.83848 18.0193 11.6499 18.6999C12.088 18.0038 12.8627 17.5409 13.746 17.5409H16.8451C17.1542 17.5409 17.4419 17.4537 17.6941 17.3127C18.1177 17.0758 18.4987 16.4749 18.6954 16.1564C19.0102 15.6467 19.2541 15.1068 19.4703 14.5182C19.5918 14.7389 19.759 14.9309 19.9592 15.0814V15.8413C19.9592 17.5584 18.5622 18.9555 16.845 18.9555H13.7459C13.16 18.9555 12.685 19.4305 12.685 20.0164C12.685 20.6023 13.16 21.0772 13.7459 21.0772H16.845C19.7321 21.0772 22.0809 18.7284 22.0809 15.8413V15.0814C22.5104 14.7587 22.7882 14.2453 22.7882 13.6668V10.4679V9.24128C22.7882 8.65095 22.4987 8.12862 22.0541 7.80747C21.7094 3.44466 18.0491 0 13.5992 0C9.14923 0 5.48897 3.44466 5.14421 7.8074C4.69967 8.12856 4.41016 8.65095 4.41016 9.24121V13.6667C4.41016 14.646 5.20571 15.4349 6.17829 15.4349ZM13.5992 2.1218C16.8933 2.1218 19.6104 4.63922 19.928 7.85127C19.7195 8.01528 19.5487 8.22488 19.431 8.4654C18.43 5.85372 16.1954 4.03539 13.5991 4.03539C10.9469 4.03539 8.74809 5.91621 7.77112 8.45497C7.76979 8.45842 7.76853 8.46195 7.7672 8.46547C7.64953 8.22495 7.47875 8.01534 7.27027 7.85134C7.58804 4.63922 10.305 2.1218 13.5992 2.1218Z" fill="white"/>
</svg>
