<svg width="30" height="30" viewBox="0 0 30 30" fill="none" xmlns="http://www.w3.org/2000/svg">
<path d="M22.9102 12.3633H24.668V15.8789H22.9102V12.3633Z" fill="white"/>
<path d="M23.7891 7.08984C24.2745 7.08984 24.668 6.69634 24.668 6.21094C24.668 5.72553 24.2745 5.33203 23.7891 5.33203C23.3037 5.33203 22.9102 5.72553 22.9102 6.21094C22.9102 6.69634 23.3037 7.08984 23.7891 7.08984Z" fill="white"/>
<path d="M29.1211 0H0.878906C0.393105 0 0 0.393105 0 0.878906V15C0 15.4858 0.393105 15.8789 0.878906 15.8789H21.1523V11.4844C21.1523 10.9986 21.5454 10.6055 22.0312 10.6055H25.5469C26.0327 10.6055 26.4258 10.9986 26.4258 11.4844V15.8789H29.1211C29.6069 15.8789 30 15.4858 30 15V0.878906C30 0.393105 29.6069 0 29.1211 0ZM18.5156 7.08984H16.7578C14.334 7.08984 12.3633 9.06135 12.3633 11.4844C12.3633 11.9702 11.9702 12.3633 11.4844 12.3633C10.9986 12.3633 10.6055 11.9702 10.6055 11.4844C10.6055 10.0304 9.4227 8.84766 7.96875 8.84766C6.5148 8.84766 5.33203 10.0304 5.33203 11.4844C5.33203 11.9702 4.93893 12.3633 4.45312 12.3633C3.96732 12.3633 3.57422 11.9702 3.57422 11.4844C3.57422 9.06135 5.5449 7.08984 7.96875 7.08984C9.3177 7.08984 10.5111 7.71352 11.3177 8.6727C12.3432 6.69844 14.3839 5.33203 16.7578 5.33203H18.5156C19.0014 5.33203 19.3945 5.72514 19.3945 6.21094C19.3945 6.69674 19.0014 7.08984 18.5156 7.08984ZM23.7891 8.84766C22.3351 8.84766 21.1523 7.66488 21.1523 6.21094C21.1523 4.75699 22.3351 3.57422 23.7891 3.57422C25.243 3.57422 26.4258 4.75699 26.4258 6.21094C26.4258 7.66488 25.243 8.84766 23.7891 8.84766Z" fill="white"/>
<path d="M0.878906 28.2422H22.9102V29.1211C22.9102 29.6069 23.3033 30 23.7891 30C24.2749 30 24.668 29.6069 24.668 29.1211V22.3952L26.1683 20.8949C26.3331 20.7301 26.4258 20.5069 26.4258 20.2734V18.5156C26.4258 18.0298 26.0327 17.6367 25.5469 17.6367H22.0312C21.5454 17.6367 21.1523 18.0298 21.1523 18.5156V20.2734C21.1523 20.5069 21.245 20.7301 21.4099 20.8948L22.9102 22.3952V22.9102H0.878906C0.393105 22.9102 0 23.3033 0 23.7891V27.3633C0 27.8491 0.393105 28.2422 0.878906 28.2422Z" fill="white"/>
<path d="M29.1211 22.9102H26.4258V28.2422H29.1211C29.6069 28.2422 30 27.8491 30 27.3633V23.7891C30 23.3033 29.6069 22.9102 29.1211 22.9102Z" fill="white"/>
</svg>
