<svg width="34" height="34" viewBox="0 0 34 34" fill="none" xmlns="http://www.w3.org/2000/svg">
<path d="M27.3213 29.3854C27.3213 29.7542 27.6203 30.0532 27.9891 30.0532H33.332C33.5091 30.0532 33.679 29.9828 33.8043 29.8576C33.9295 29.7324 33.9999 29.5625 33.9999 29.3853V28.8389H27.3213V29.3854Z" fill="white"/>
<path d="M33.332 17.9106H27.9891C27.6203 17.9106 27.3213 18.2097 27.3213 18.5785V19.125H33.9998V18.5785C33.9998 18.2097 33.7008 17.9106 33.332 17.9106Z" fill="white"/>
<path d="M13.9639 22.1607H20.6424H26.1067V20.3394H13.9639V22.1607Z" fill="white"/>
<path d="M27.9284 5.76775C27.9284 4.76182 27.113 3.94629 26.107 3.94629H7.89275C6.88682 3.94629 6.07129 4.76176 6.07129 5.76775V9.41059H11.2235C12.7364 9.41225 13.9625 10.6383 13.9641 12.1512V19.1249H26.107V18.5784C26.1104 17.565 26.9155 16.7363 27.9284 16.7036V5.76775Z" fill="white"/>
<path d="M20.0353 23.375H13.9639V25.8035H20.0353V23.375Z" fill="white"/>
<path d="M33.9998 20.3394H27.3213V27.625H33.9998V20.3394Z" fill="white"/>
<path d="M0 28.527C0.000664063 29.3697 0.683652 30.0527 1.52635 30.0533H11.2237C12.0663 30.0527 12.7493 29.3697 12.75 28.527V28.2319H0V28.527Z" fill="white"/>
<path d="M0 27.0178H12.75V26.4106V22.7678V13.6606H0V27.0178Z" fill="white"/>
<path d="M11.2237 10.625H1.52635C0.683652 10.6257 0.000664063 11.3087 0 12.1513V12.4464H12.75V12.1513C12.7493 11.3087 12.0663 10.6257 11.2237 10.625Z" fill="white"/>
<path d="M23.071 27.0176H13.9639V28.2319H23.6782V27.6247C23.6781 27.2894 23.4063 27.0176 23.071 27.0176Z" fill="white"/>
</svg>
