<svg width="35" height="35" viewBox="0 0 35 35" fill="none" xmlns="http://www.w3.org/2000/svg">
<path d="M11.3477 0H5.12695C2.29995 0 0 2.29995 0 5.12695V11.3477C0 14.1747 2.29995 16.4746 5.12695 16.4746H11.3477C14.1747 16.4746 16.4746 14.1747 16.4746 11.3477V5.12695C16.4746 2.29995 14.1747 0 11.3477 0Z" fill="white"/>
<path d="M29.873 18.5254H23.6523C20.8253 18.5254 18.5254 20.8253 18.5254 23.6523V29.873C18.5254 32.7 20.8253 35 23.6523 35H29.873C32.7 35 35 32.7 35 29.873V23.6523C35 20.8253 32.7 18.5254 29.873 18.5254Z" fill="white"/>
<path d="M29.873 0H23.6523C20.8253 0 18.5254 2.29995 18.5254 5.12695V11.3477C18.5254 15.3055 15.3055 18.5254 11.3477 18.5254H5.12695C2.29995 18.5254 0 20.8253 0 23.6523V29.873C0 32.7001 2.29995 35 5.12695 35H11.3477C14.1747 35 16.4746 32.7001 16.4746 29.873V23.6523C16.4746 19.6945 19.6945 16.4746 23.6523 16.4746H29.873C32.7001 16.4746 35 14.1747 35 11.3477V5.12695C35 2.29995 32.7001 0 29.873 0Z" fill="white"/>
</svg>
