<svg width="15" height="16" viewBox="0 0 15 16" fill="none" xmlns="http://www.w3.org/2000/svg">
<path d="M3.74999 6.12502C3.89602 6.12473 4.03754 6.17559 4.14999 6.26877L7.49999 9.06877L10.8562 6.36877C10.9202 6.31685 10.9937 6.27808 11.0727 6.25469C11.1517 6.23129 11.2345 6.22374 11.3164 6.23245C11.3982 6.24116 11.4776 6.26597 11.5499 6.30545C11.6222 6.34494 11.6859 6.39832 11.7375 6.46252C11.7894 6.52645 11.8282 6.60001 11.8516 6.67897C11.875 6.75793 11.8825 6.84074 11.8738 6.92263C11.8651 7.00453 11.8403 7.08389 11.8008 7.15616C11.7613 7.22844 11.7079 7.29219 11.6437 7.34377L7.89374 10.3625C7.78191 10.4544 7.64163 10.5047 7.49686 10.5047C7.3521 10.5047 7.21182 10.4544 7.09999 10.3625L3.34999 7.23752C3.2867 7.18505 3.23439 7.12061 3.19604 7.0479C3.1577 6.97518 3.13407 6.89561 3.12653 6.81375C3.11898 6.73189 3.12766 6.64935 3.15206 6.57084C3.17646 6.49234 3.21611 6.41942 3.26874 6.35627C3.3269 6.28457 3.40022 6.22665 3.48343 6.18667C3.56664 6.14668 3.65767 6.12563 3.74999 6.12502Z" fill="#219653"/>
</svg>
