<svg width="24" height="24" viewBox="0 0 24 24" fill="none" xmlns="http://www.w3.org/2000/svg">
<path d="M19.4999 21.75H19.3724C4.63494 20.9025 2.54244 8.4675 2.24994 4.6725C2.22637 4.37744 2.26126 4.08062 2.3526 3.79906C2.44394 3.5175 2.58994 3.25673 2.78223 3.03169C2.97452 2.80665 3.20933 2.62177 3.4732 2.48763C3.73707 2.35349 4.02481 2.27274 4.31994 2.25H8.45244C8.75286 2.24971 9.04644 2.33963 9.29517 2.50812C9.54389 2.67661 9.73629 2.9159 9.84744 3.195L10.9874 6C11.0972 6.27266 11.1244 6.57156 11.0658 6.85957C11.0071 7.14758 10.8651 7.412 10.6574 7.62L9.05994 9.2325C9.30948 10.6506 9.98858 11.9578 11.0054 12.9772C12.0221 13.9967 13.3275 14.6792 14.7449 14.9325L16.3724 13.32C16.5836 13.1146 16.8505 12.9759 17.1399 12.9213C17.4293 12.8666 17.7284 12.8983 17.9999 13.0125L20.8274 14.145C21.1023 14.2597 21.3369 14.4536 21.5012 14.702C21.6654 14.9504 21.752 15.2422 21.7499 15.54V19.5C21.7499 20.0967 21.5129 20.669 21.0909 21.091C20.669 21.5129 20.0967 21.75 19.4999 21.75ZM4.49994 3.75C4.30103 3.75 4.11026 3.82902 3.96961 3.96967C3.82896 4.11032 3.74994 4.30109 3.74994 4.5V4.56C4.09494 9 6.30744 19.5 19.4549 20.25C19.5535 20.2561 19.6522 20.2427 19.7456 20.2105C19.8389 20.1783 19.925 20.1281 19.9988 20.0626C20.0727 19.9971 20.1329 19.9176 20.176 19.8288C20.2191 19.74 20.2442 19.6436 20.2499 19.545V15.54L17.4224 14.4075L15.2699 16.545L14.9099 16.5C8.38494 15.6825 7.49994 9.1575 7.49994 9.09L7.45494 8.73L9.58494 6.5775L8.45994 3.75H4.49994Z" fill="white"/>
</svg>
